<svg id="svg" version="1.1" xmlns="http://www.w3.org/2000/svg" xmlns:xlink="http://www.w3.org/1999/xlink" width="400" height="400" viewBox="0, 0, 400,400"><g id="svgg"><path id="path0" d="M238.667 5.132 C 209.792 8.256,171.191 22.989,156.606 36.452 C 155.137 37.808,154.605 37.944,153.062 37.357 C 146.234 34.761,138.146 38.719,139.522 43.983 C 139.765 44.912,139.092 46.084,137.268 47.909 C 134.159 51.018,133.715 54.381,136.099 56.765 C 137.348 58.015,137.419 58.376,136.652 59.599 C 120.110 85.965,116.495 126.452,129.245 142.555 L 131.180 145.000 128.943 151.697 C 122.413 171.242,126.212 186.735,138.916 192.370 C 141.162 193.367,143.091 194.257,143.203 194.349 C 143.314 194.441,142.790 195.525,142.038 196.758 C 138.978 201.778,141.493 207.285,146.424 206.360 C 148.054 206.055,149.148 206.368,151.109 207.703 C 153.585 209.389,155.548 209.572,158.667 208.406 C 159.370 208.144,160.359 209.258,162.000 212.163 C 163.500 214.819,167.004 218.923,171.813 223.657 C 184.245 235.894,183.937 235.003,179.919 247.087 L 177.171 255.350 173.752 253.318 C 149.204 238.731,135.939 238.729,126.009 253.309 C 121.834 259.440,121.507 259.615,113.777 259.841 C 97.301 260.325,83.014 266.927,77.867 276.434 C 74.493 282.667,73.706 293.751,76.351 297.787 C 77.366 299.336,77.378 299.589,76.465 300.100 C 56.563 311.237,33.485 343.909,13.633 389.051 C 8.472 400.787,8.529 400.000,12.841 400.000 L 16.348 400.000 19.274 393.167 C 23.787 382.628,33.322 363.996,39.490 353.667 C 62.376 315.340,74.901 305.059,120.333 287.306 C 142.533 278.632,145.372 277.333,142.129 277.333 C 134.127 277.333,108.252 284.919,93.429 291.610 C 84.991 295.419,84.515 295.194,84.826 287.542 C 85.250 277.154,96.900 269.590,114.917 268.007 C 124.884 267.132,126.993 265.977,131.052 259.172 C 138.610 246.500,151.238 245.345,173.457 255.293 L 176.581 256.691 175.325 259.512 C 174.634 261.064,173.148 264.028,172.021 266.099 L 169.974 269.864 165.327 267.480 C 160.395 264.950,158.301 264.842,162.320 267.325 C 163.634 268.137,168.500 272.896,173.132 277.901 C 177.765 282.905,186.997 292.700,193.648 299.667 C 200.299 306.633,211.415 318.483,218.350 326.000 C 234.548 343.555,235.479 344.269,240.168 342.721 C 248.970 339.816,294.528 280.417,293.219 273.553 C 292.429 269.410,289.292 272.082,282.521 282.667 C 268.383 304.766,241.771 337.333,237.850 337.333 C 237.062 337.333,235.215 335.888,233.417 333.864 C 213.816 311.808,188.387 286.060,173.780 273.480 L 171.241 271.293 176.291 266.577 C 183.378 259.959,190.856 248.216,193.388 239.730 C 194.650 235.503,190.705 230.239,177.560 218.610 C 169.341 211.338,163.075 203.600,160.732 197.827 C 159.616 195.079,158.578 193.686,156.911 192.703 C 154.631 191.357,154.626 191.345,155.679 189.310 C 157.801 185.205,155.544 183.487,149.090 184.293 C 135.251 186.022,130.317 167.227,139.286 146.952 C 142.872 138.845,150.899 140.137,160.976 150.444 C 169.624 159.289,170.736 158.525,171.450 143.242 C 172.262 125.858,174.250 114.231,179.040 98.847 C 181.768 90.085,181.228 90.527,191.844 88.365 C 202.397 86.216,211.766 83.797,218.833 81.398 C 222.042 80.309,224.667 79.553,224.667 79.719 C 224.667 79.885,223.767 81.615,222.667 83.564 C 220.313 87.734,220.206 88.873,222.000 90.667 C 225.460 94.127,245.178 90.717,264.891 83.250 L 275.667 79.168 284.667 79.280 C 294.386 79.400,301.129 78.429,309.973 75.635 L 315.045 74.033 319.503 78.298 L 323.961 82.562 324.648 96.448 C 325.026 104.085,325.470 111.753,325.635 113.488 L 325.934 116.642 323.467 115.020 C 317.949 111.393,313.591 111.420,303.333 115.147 C 297.856 117.137,296.444 117.400,292.887 117.088 C 285.813 116.467,281.638 120.963,284.234 126.406 C 287.260 132.752,295.827 132.194,312.045 124.593 C 317.960 121.821,321.220 120.667,323.132 120.667 L 325.841 120.667 326.285 126.833 C 328.246 154.088,327.777 192.202,325.355 202.401 C 317.223 236.641,284.238 256.852,251.000 247.961 C 235.966 243.939,232.453 243.770,232.133 247.051 C 231.487 253.671,245.651 259.729,263.511 260.472 C 272.166 260.832,272.704 260.934,272.962 262.260 C 273.113 263.034,273.571 265.903,273.980 268.635 C 275.285 277.353,277.885 281.541,281.086 280.082 C 283.256 279.093,283.047 275.694,280.440 269.608 C 277.533 262.823,277.702 261.120,281.333 260.602 C 285.523 260.004,291.942 261.005,299.074 263.369 C 308.520 266.499,311.062 268.414,316.196 276.271 C 317.809 278.739,319.518 280.212,323.160 282.271 C 328.238 285.142,329.934 286.892,330.118 289.451 C 330.236 291.098,329.363 298.667,329.054 298.667 C 328.954 298.667,326.471 297.239,323.537 295.494 L 318.203 292.322 319.884 289.790 C 321.979 286.633,321.383 283.792,318.557 283.462 C 317.069 283.289,315.943 284.254,311.079 289.871 C 305.736 296.041,300.706 300.785,278.167 320.911 C 264.670 332.963,253.067 346.040,250.931 351.605 C 249.887 354.327,252.833 352.155,257.692 346.622 C 264.524 338.841,273.170 331.032,289.297 318.079 C 296.427 312.352,305.646 304.413,309.785 300.436 L 317.309 293.206 329.821 303.413 C 366.069 332.982,373.475 345.230,381.977 389.667 C 382.748 393.700,383.525 397.675,383.702 398.500 C 383.980 399.791,384.452 400.000,387.090 400.000 C 390.081 400.000,390.146 399.955,389.779 398.167 C 389.572 397.158,389.065 393.933,388.652 391.000 C 385.027 365.231,378.576 349.562,362.029 326.325 C 358.513 321.386,340.893 305.333,338.989 305.333 C 337.880 305.333,335.490 302.825,335.927 302.118 C 336.191 301.690,336.466 298.027,336.537 293.977 C 336.722 283.507,335.646 281.580,326.967 276.836 C 323.466 274.922,321.816 273.513,320.215 271.067 C 314.946 263.015,303.014 256.667,293.149 256.667 C 291.534 256.667,292.160 256.176,296.631 253.938 C 316.952 243.767,329.886 225.717,334.501 201.090 C 336.623 189.766,335.579 143.213,332.427 108.625 C 331.646 100.064,331.651 100.000,333.037 100.000 C 340.897 100.000,341.441 77.160,333.780 68.803 C 332.631 67.550,332.523 67.068,333.182 66.137 C 339.952 56.566,340.630 42.186,334.417 39.940 C 332.314 39.179,332.178 38.953,332.474 36.727 C 332.896 33.566,330.747 30.667,327.983 30.667 L 326.062 30.667 327.162 28.750 C 329.072 25.421,325.727 22.000,320.561 22.000 C 314.785 22.000,297.621 17.315,283.333 11.839 C 279.483 10.363,274.533 8.474,272.333 7.640 C 265.465 5.038,250.112 3.894,238.667 5.132 M232.333 117.696 C 222.487 120.162,203.514 131.998,211.833 130.484 C 233.306 126.576,237.861 126.569,247.333 130.423 L 253.667 133.000 263.333 133.000 C 271.344 133.000,273.418 132.792,275.438 131.787 C 282.225 128.410,279.486 118.677,272.008 119.593 C 261.118 120.927,256.448 120.801,250.667 119.015 C 243.541 116.814,237.569 116.384,232.333 117.696 M239.783 134.833 C 235.115 141.083,235.942 150.751,241.499 154.893 C 248.243 159.920,252.754 143.021,247.008 134.252 C 245.383 131.772,241.858 132.056,239.783 134.833 M304.006 134.816 C 298.668 143.595,302.592 159.002,309.219 155.282 C 314.929 152.077,316.081 140.521,311.297 134.438 C 309.199 131.772,305.749 131.950,304.006 134.816 M284.278 151.569 C 283.993 152.312,285.004 153.683,287.557 156.016 C 299.522 166.951,289.397 176.113,275.735 166.714 C 272.128 164.232,270.380 164.133,268.942 166.328 C 265.963 170.875,275.263 177.333,284.788 177.333 C 297.823 177.333,303.386 161.380,293.216 153.161 C 290.244 150.759,284.951 149.816,284.278 151.569 M141.109 156.291 C 140.907 156.817,141.294 157.951,141.970 158.810 C 143.041 160.173,143.079 160.534,142.266 161.647 C 139.233 165.794,144.730 171.322,148.694 168.112 L 150.304 166.808 153.032 169.737 C 157.285 174.304,162.667 173.267,162.667 167.880 C 162.667 162.093,142.949 151.493,141.109 156.291 M265.333 194.027 C 265.333 207.897,284.114 214.440,295.086 204.391 C 301.409 198.601,297.962 190.110,291.265 194.981 C 284.101 200.192,283.909 200.286,280.387 200.286 C 275.968 200.286,271.802 197.932,268.786 193.733 C 265.975 189.819,265.333 189.874,265.333 194.027 M152.613 301.059 C 156.641 307.886,177.942 333.834,186.744 342.636 C 202.964 358.856,224.667 371.170,224.667 364.154 L 224.667 361.641 218.331 358.735 C 205.936 353.049,196.480 345.347,179.819 327.366 C 157.196 302.949,149.122 295.142,152.613 301.059 M87.676 334.057 C 88.428 338.506,102.333 386.729,103.856 390.167 C 105.287 393.397,107.587 394.520,108.405 392.388 C 110.170 387.788,91.234 331.333,87.926 331.333 C 87.465 331.333,87.377 332.287,87.676 334.057 M238.412 355.688 C 225.628 356.716,226.690 355.416,226.677 370.066 C 226.666 383.042,226.454 382.289,232.098 389.337 L 233.862 391.540 247.016 390.716 C 254.251 390.263,260.582 389.735,261.085 389.542 C 261.820 389.260,262.000 386.460,262.000 375.310 L 262.000 361.430 256.944 358.048 C 254.163 356.188,251.238 354.705,250.444 354.752 C 249.650 354.798,244.235 355.220,238.412 355.688 M254.876 358.927 L 256.779 360.333 254.223 360.754 C 241.918 362.780,230.333 361.819,230.333 358.773 C 230.333 358.216,249.879 356.777,251.654 357.203 C 252.380 357.378,253.830 358.154,254.876 358.927 M259.333 375.269 L 259.333 387.205 252.500 387.641 C 248.742 387.881,243.117 388.135,240.000 388.205 L 234.333 388.333 234.151 376.818 C 233.999 367.244,234.132 365.241,234.937 364.932 C 236.073 364.496,248.356 363.569,254.833 363.430 L 259.333 363.333 259.333 375.269 M250.377 367.930 C 250.174 368.258,250.456 368.699,251.004 368.909 C 251.761 369.200,252.000 370.453,252.000 374.140 L 252.000 378.988 248.298 373.459 L 244.596 367.930 241.517 368.132 C 238.729 368.314,236.408 370.000,238.944 370.000 C 240.597 370.000,240.495 383.144,238.833 384.405 C 237.801 385.189,237.974 385.292,240.333 385.302 C 243.551 385.315,245.618 384.323,243.815 383.631 C 242.865 383.267,242.669 382.309,242.680 378.095 L 242.694 373.000 246.270 378.597 C 252.413 388.209,254.000 387.847,254.000 376.836 C 254.000 370.295,254.174 369.015,255.167 368.261 C 256.196 367.480,256.006 367.373,253.539 367.355 C 252.003 367.343,250.579 367.602,250.377 367.930 M70.977 371.167 C 72.141 374.166,78.667 397.518,78.667 398.683 C 78.667 399.744,79.121 400.000,81.000 400.000 C 83.876 400.000,83.895 400.448,80.613 390.907 C 76.769 379.737,72.497 370.015,71.429 370.007 C 70.838 370.002,70.681 370.405,70.977 371.167 " stroke="none" fill="#000000" fill-rule="evenodd"></path></g></svg>